PathFileType	4	(X/Y/Z)	test111.trc
DataRate	CameraRate	NumFrames	NumMarkers	Units	OrigDataRate	OrigDataStartFrame	OrigNumFrames
120	120	19	27	m	120	884	1010
Frame#	Time	RHip			RKnee			RAnkle			RBigToe			RSmallToe			RHeel			LHip			LKnee			LAnkle			LBigToe			LSmallToe			LHeel			Nose			REye			LEye			RShoulder			RElbow			RWrist			RThumb			RIndex			RPinky			LShoulder			LElbow			LWrist			LThumb			LIndex			LPinky		
		X	Y	Z	X	Y	Z	X	Y	Z	X	Y	Z	X	Y	Z	X	Y	Z	X	Y	Z	X	Y	Z	X	Y	Z	X	Y	Z	X	Y	Z	X	Y	Z	X	Y	Z	X	Y	Z	X	Y	Z	X	Y	Z	X	Y	Z	X	Y	Z	X	Y	Z	X	Y	Z	X	Y	Z	X	Y	Z	X	Y	Z	X	Y	Z	X	Y	Z	X	Y	Z	X	Y	Z
884	7.366666666666666	0.091	0.131	0.937	0.462	-0.004	1.081	0.679	-0.201	0.84	0.849	-0.264	0.929	0.835	-0.272	0.901	0.715	-0.193	0.784	0.192	0.298	0.883	0.248	0.206	0.479	0.122	0.23	0.088	0.235	0.101	0.011	0.24	0.159	0.009	0.085	0.246	0.042	0.135	0.157	1.512	0.109	0.159	1.544	0.159	0.168	1.545	-0.053	0.282	1.364	-0.152	0.307	1.093	-0.203	0.252	0.846	-0.177	0.214	0.782	-0.213	0.21	0.757	-0.224	0.264	0.754	0.313	0.383	1.393	0.388	0.107	1.335	0.202	0.005	1.43	0.118	0.012	1.441	0.116	-0.006	1.469	0.139	-0.041	1.458
885	7.375	0.086	0.135	0.936	0.461	-0.011	1.067	0.676	-0.193	0.811	0.848	-0.259	0.892	0.832	-0.268	0.865	0.709	-0.184	0.754	0.188	0.301	0.884	0.244	0.211	0.477	0.12	0.229	0.086	0.237	0.102	0.011	0.24	0.159	0.009	0.084	0.245	0.039	0.136	0.16	1.515	0.11	0.161	1.547	0.161	0.172	1.547	-0.055	0.276	1.365	-0.157	0.295	1.095	-0.207	0.233	0.85	-0.182	0.193	0.787	-0.219	0.187	0.762	-0.23	0.242	0.759	0.31	0.389	1.391	0.397	0.12	1.33	0.218	0.005	1.426	0.133	0.01	1.439	0.132	-0.009	1.467	0.159	-0.045	1.455
886	7.383333333333334	0.08	0.139	0.935	0.457	-0.02	1.051	0.671	-0.185	0.782	0.846	-0.253	0.855	0.827	-0.263	0.829	0.702	-0.174	0.725	0.183	0.304	0.884	0.239	0.215	0.476	0.118	0.229	0.083	0.239	0.104	0.011	0.24	0.16	0.009	0.082	0.244	0.036	0.137	0.162	1.517	0.111	0.164	1.549	0.163	0.175	1.55	-0.056	0.27	1.366	-0.161	0.283	1.097	-0.211	0.214	0.855	-0.186	0.171	0.792	-0.224	0.164	0.768	-0.236	0.22	0.764	0.307	0.395	1.39	0.405	0.135	1.324	0.234	0.006	1.422	0.149	0.009	1.436	0.149	-0.012	1.464	0.179	-0.05	1.451
887	7.391666666666667	0.075	0.142	0.934	0.452	-0.03	1.036	0.666	-0.177	0.754	0.843	-0.246	0.817	0.822	-0.257	0.793	0.694	-0.164	0.696	0.178	0.307	0.884	0.234	0.219	0.475	0.116	0.229	0.081	0.24	0.105	0.011	0.24	0.16	0.009	0.08	0.243	0.034	0.137	0.165	1.519	0.112	0.166	1.552	0.164	0.178	1.552	-0.057	0.265	1.367	-0.165	0.271	1.1	-0.215	0.195	0.861	-0.19	0.149	0.798	-0.229	0.141	0.775	-0.241	0.198	0.77	0.304	0.401	1.388	0.413	0.15	1.318	0.251	0.008	1.416	0.167	0.008	1.432	0.167	-0.014	1.46	0.2	-0.054	1.447
888	7.4	0.07	0.144	0.933	0.446	-0.039	1.019	0.659	-0.168	0.726	0.838	-0.238	0.781	0.814	-0.251	0.757	0.684	-0.154	0.667	0.173	0.31	0.883	0.23	0.222	0.474	0.114	0.228	0.08	0.242	0.106	0.011	0.241	0.16	0.009	0.079	0.242	0.032	0.138	0.167	1.522	0.112	0.168	1.554	0.164	0.181	1.554	-0.058	0.26	1.368	-0.168	0.259	1.103	-0.218	0.176	0.867	-0.193	0.128	0.804	-0.232	0.119	0.782	-0.245	0.176	0.776	0.301	0.406	1.387	0.421	0.166	1.312	0.269	0.012	1.41	0.186	0.008	1.428	0.186	-0.016	1.456	0.221	-0.056	1.442
889	7.408333333333333	0.065	0.146	0.932	0.441	-0.046	1.003	0.651	-0.159	0.698	0.833	-0.229	0.744	0.806	-0.243	0.722	0.674	-0.144	0.64	0.168	0.313	0.883	0.225	0.226	0.473	0.113	0.228	0.078	0.243	0.107	0.012	0.241	0.161	0.01	0.077	0.24	0.03	0.139	0.169	1.524	0.113	0.17	1.556	0.164	0.184	1.556	-0.058	0.255	1.369	-0.171	0.248	1.107	-0.22	0.157	0.873	-0.196	0.107	0.811	-0.236	0.097	0.79	-0.249	0.154	0.783	0.298	0.411	1.385	0.429	0.182	1.305	0.287	0.016	1.404	0.206	0.009	1.424	0.206	-0.017	1.45	0.244	-0.058	1.436
890	7.416666666666667	0.06	0.148	0.93	0.436	-0.052	0.986	0.642	-0.149	0.671	0.826	-0.219	0.709	0.797	-0.235	0.687	0.662	-0.134	0.613	0.163	0.316	0.883	0.221	0.229	0.472	0.112	0.228	0.077	0.245	0.109	0.013	0.242	0.162	0.01	0.076	0.239	0.029	0.139	0.171	1.527	0.114	0.172	1.558	0.164	0.186	1.558	-0.059	0.25	1.371	-0.173	0.236	1.11	-0.222	0.139	0.88	-0.198	0.086	0.818	-0.238	0.075	0.798	-0.253	0.132	0.79	0.294	0.416	1.384	0.436	0.198	1.298	0.305	0.022	1.397	0.227	0.01	1.419	0.228	-0.017	1.444	0.267	-0.059	1.429
891	7.425	0.055	0.149	0.929	0.433	-0.055	0.969	0.633	-0.139	0.645	0.819	-0.208	0.674	0.787	-0.225	0.654	0.65	-0.123	0.586	0.159	0.318	0.883	0.217	0.231	0.472	0.111	0.227	0.076	0.246	0.11	0.013	0.242	0.162	0.011	0.074	0.238	0.028	0.139	0.173	1.529	0.114	0.174	1.561	0.164	0.188	1.56	-0.059	0.246	1.372	-0.175	0.225	1.114	-0.223	0.121	0.886	-0.199	0.066	0.825	-0.239	0.054	0.806	-0.256	0.111	0.797	0.29	0.421	1.382	0.441	0.215	1.29	0.323	0.029	1.389	0.249	0.013	1.413	0.249	-0.017	1.438	0.29	-0.058	1.421
892	7.433333333333334	0.05	0.151	0.928	0.43	-0.057	0.951	0.623	-0.128	0.619	0.811	-0.196	0.639	0.776	-0.215	0.621	0.637	-0.112	0.561	0.154	0.32	0.884	0.214	0.234	0.472	0.11	0.227	0.076	0.248	0.112	0.014	0.243	0.163	0.012	0.073	0.237	0.027	0.14	0.174	1.532	0.115	0.176	1.563	0.164	0.19	1.563	-0.058	0.242	1.373	-0.176	0.213	1.118	-0.224	0.103	0.893	-0.199	0.046	0.833	-0.239	0.034	0.814	-0.258	0.09	0.804	0.285	0.426	1.381	0.446	0.231	1.283	0.342	0.036	1.381	0.271	0.016	1.407	0.272	-0.016	1.43	0.314	-0.055	1.412
893	7.441666666666666	0.046	0.152	0.928	0.428	-0.056	0.934	0.613	-0.117	0.594	0.802	-0.184	0.606	0.764	-0.204	0.589	0.624	-0.101	0.536	0.15	0.321	0.884	0.21	0.236	0.472	0.109	0.227	0.076	0.249	0.114	0.015	0.244	0.164	0.013	0.072	0.236	0.027	0.14	0.176	1.534	0.116	0.178	1.565	0.164	0.193	1.565	-0.058	0.238	1.374	-0.177	0.202	1.122	-0.224	0.086	0.9	-0.199	0.028	0.841	-0.239	0.015	0.823	-0.259	0.07	0.811	0.281	0.43	1.38	0.45	0.246	1.275	0.359	0.044	1.373	0.294	0.02	1.4	0.294	-0.013	1.422	0.336	-0.052	1.402
894	7.45	0.043	0.154	0.927	0.427	-0.054	0.916	0.602	-0.106	0.569	0.792	-0.17	0.574	0.752	-0.193	0.558	0.61	-0.089	0.512	0.146	0.323	0.885	0.207	0.239	0.473	0.109	0.228	0.076	0.251	0.116	0.016	0.244	0.166	0.014	0.072	0.236	0.026	0.141	0.178	1.537	0.116	0.18	1.568	0.164	0.195	1.567	-0.057	0.234	1.375	-0.178	0.191	1.126	-0.223	0.07	0.906	-0.198	0.01	0.849	-0.238	-0.003	0.831	-0.26	0.05	0.819	0.277	0.435	1.379	0.452	0.261	1.267	0.377	0.052	1.364	0.317	0.025	1.392	0.317	-0.01	1.414	0.359	-0.047	1.392
895	7.458333333333333	0.04	0.154	0.927	0.426	-0.05	0.899	0.591	-0.094	0.545	0.782	-0.157	0.543	0.74	-0.18	0.528	0.596	-0.077	0.488	0.143	0.324	0.886	0.203	0.241	0.475	0.108	0.228	0.076	0.252	0.117	0.017	0.245	0.167	0.015	0.071	0.235	0.026	0.142	0.18	1.54	0.117	0.182	1.57	0.165	0.198	1.57	-0.056	0.23	1.377	-0.178	0.181	1.13	-0.222	0.054	0.913	-0.196	-0.006	0.857	-0.235	-0.021	0.84	-0.26	0.031	0.826	0.272	0.439	1.378	0.454	0.275	1.259	0.393	0.061	1.355	0.339	0.03	1.384	0.339	-0.005	1.405	0.381	-0.04	1.381
896	7.466666666666667	0.039	0.153	0.927	0.425	-0.045	0.881	0.58	-0.082	0.522	0.771	-0.142	0.513	0.727	-0.168	0.499	0.582	-0.064	0.466	0.139	0.325	0.887	0.2	0.244	0.476	0.108	0.229	0.076	0.254	0.119	0.019	0.246	0.168	0.016	0.071	0.235	0.026	0.143	0.182	1.542	0.118	0.184	1.573	0.166	0.201	1.572	-0.054	0.227	1.379	-0.178	0.171	1.134	-0.22	0.039	0.92	-0.194	-0.022	0.865	-0.232	-0.037	0.848	-0.259	0.013	0.834	0.268	0.443	1.377	0.454	0.289	1.252	0.409	0.07	1.346	0.362	0.037	1.376	0.361	0.0	1.395	0.402	-0.032	1.37
897	7.475	0.039	0.152	0.928	0.424	-0.039	0.864	0.568	-0.07	0.5	0.76	-0.128	0.485	0.714	-0.155	0.472	0.568	-0.051	0.444	0.135	0.326	0.889	0.197	0.247	0.478	0.108	0.229	0.077	0.255	0.122	0.02	0.246	0.17	0.017	0.071	0.235	0.026	0.145	0.184	1.545	0.12	0.186	1.576	0.167	0.204	1.575	-0.053	0.223	1.38	-0.177	0.162	1.139	-0.218	0.025	0.927	-0.191	-0.037	0.874	-0.228	-0.053	0.857	-0.257	-0.004	0.842	0.263	0.447	1.376	0.454	0.302	1.244	0.425	0.08	1.336	0.383	0.044	1.367	0.383	0.007	1.386	0.423	-0.022	1.359
898	7.483333333333333	0.04	0.149	0.928	0.422	-0.032	0.847	0.557	-0.058	0.479	0.749	-0.113	0.458	0.701	-0.141	0.446	0.554	-0.038	0.423	0.131	0.327	0.89	0.193	0.25	0.48	0.107	0.23	0.077	0.256	0.124	0.021	0.247	0.172	0.019	0.07	0.235	0.027	0.146	0.186	1.548	0.121	0.188	1.578	0.169	0.207	1.578	-0.051	0.219	1.382	-0.177	0.152	1.143	-0.215	0.011	0.934	-0.187	-0.051	0.882	-0.224	-0.068	0.865	-0.255	-0.02	0.85	0.259	0.451	1.375	0.453	0.315	1.236	0.439	0.09	1.327	0.404	0.051	1.358	0.405	0.015	1.376	0.443	-0.011	1.347
899	7.491666666666666	0.041	0.146	0.929	0.42	-0.025	0.831	0.546	-0.046	0.458	0.738	-0.098	0.432	0.689	-0.127	0.421	0.54	-0.025	0.403	0.127	0.328	0.891	0.189	0.252	0.483	0.107	0.231	0.078	0.257	0.127	0.022	0.248	0.175	0.02	0.07	0.235	0.027	0.148	0.188	1.551	0.122	0.19	1.581	0.171	0.21	1.581	-0.049	0.216	1.384	-0.176	0.144	1.148	-0.212	0.0	0.941	-0.183	-0.063	0.89	-0.219	-0.082	0.874	-0.252	-0.036	0.858	0.255	0.455	1.375	0.451	0.328	1.229	0.452	0.1	1.317	0.424	0.058	1.348	0.425	0.024	1.366	0.462	0.0	1.335
900	7.5	0.042	0.142	0.929	0.418	-0.017	0.814	0.535	-0.033	0.438	0.726	-0.082	0.407	0.677	-0.113	0.398	0.526	-0.012	0.383	0.123	0.33	0.893	0.185	0.255	0.485	0.107	0.232	0.078	0.258	0.131	0.023	0.248	0.177	0.021	0.07	0.235	0.027	0.15	0.191	1.555	0.123	0.192	1.584	0.174	0.214	1.584	-0.047	0.212	1.386	-0.174	0.136	1.152	-0.208	-0.012	0.947	-0.178	-0.075	0.898	-0.213	-0.095	0.882	-0.248	-0.05	0.866	0.25	0.458	1.374	0.449	0.34	1.222	0.465	0.11	1.308	0.442	0.066	1.338	0.445	0.034	1.357	0.48	0.014	1.324
901	7.508333333333334	0.044	0.137	0.93	0.414	-0.009	0.798	0.524	-0.021	0.419	0.715	-0.067	0.384	0.665	-0.098	0.376	0.513	0.0	0.365	0.118	0.332	0.894	0.181	0.258	0.487	0.106	0.233	0.079	0.259	0.135	0.024	0.248	0.181	0.023	0.07	0.235	0.027	0.152	0.193	1.558	0.125	0.194	1.588	0.176	0.218	1.587	-0.044	0.208	1.388	-0.172	0.128	1.157	-0.204	-0.022	0.954	-0.172	-0.085	0.906	-0.207	-0.107	0.89	-0.243	-0.064	0.874	0.246	0.461	1.374	0.447	0.352	1.215	0.476	0.12	1.298	0.458	0.073	1.329	0.463	0.044	1.346	0.496	0.027	1.312
902	7.516666666666667	0.046	0.133	0.93	0.41	-0.001	0.782	0.513	-0.009	0.401	0.704	-0.051	0.361	0.653	-0.083	0.355	0.5	0.012	0.347	0.113	0.334	0.895	0.176	0.261	0.489	0.105	0.234	0.08	0.26	0.14	0.026	0.247	0.185	0.024	0.07	0.235	0.028	0.154	0.196	1.561	0.126	0.196	1.591	0.179	0.222	1.59	-0.042	0.204	1.39	-0.17	0.12	1.161	-0.199	-0.032	0.961	-0.166	-0.095	0.913	-0.2	-0.118	0.898	-0.237	-0.076	0.882	0.242	0.464	1.374	0.444	0.364	1.208	0.486	0.131	1.289	0.473	0.08	1.319	0.48	0.054	1.336	0.511	0.041	1.3
